<svg width="30" height="29" viewBox="0 0 30 29" fill="none" xmlns="http://www.w3.org/2000/svg">
<path d="M0.75 14.5C0.75 22.3555 7.14264 28.75 14.9983 28.75C22.8555 28.75 29.25 22.3556 29.25 14.5C29.25 6.64443 22.8573 0.25 14.9983 0.25C7.14087 0.25 0.75 6.64449 0.75 14.5ZM4.75 14.5C4.75 8.84902 9.34563 4.25 15 4.25C20.6544 4.25 25.25 8.84902 25.25 14.5C25.25 20.1509 20.6509 24.75 15 24.75C9.34907 24.75 4.75 20.1509 4.75 14.5Z" fill="#D81C23" stroke="#D81C23" stroke-width="0.5"/>
<path d="M5.59599 15.1001L5.5813 15.1265L5.58365 15.1565C5.65392 16.0548 5.8761 16.9186 6.22146 17.7232L6.26441 17.8233L6.36045 17.772C6.89573 17.4861 7.56378 17.538 8.25948 17.8288C8.95381 18.119 9.66049 18.6415 10.2566 19.2688C10.8528 19.8962 11.3328 20.6223 11.5791 21.3145C11.826 22.0086 11.8327 22.6509 11.5138 23.1316L11.4428 23.2386L11.5639 23.2812C12.656 23.6653 13.7202 23.9525 14.9665 23.9525L14.9668 23.9525C16.1812 23.9481 17.3868 23.7468 18.5367 23.3566L18.6598 23.3148L18.5879 23.2065C18.2679 22.7249 18.267 22.0879 18.5014 21.4041C18.7352 20.7217 19.1988 20.0089 19.7789 19.3957C20.359 18.7825 21.05 18.2748 21.7334 17.9975C22.4177 17.7198 23.0807 17.6778 23.6207 17.9704L23.7167 18.0224L23.7601 17.9223C24.1246 17.0818 24.3453 16.186 24.4131 15.2724L24.4153 15.242L24.4003 15.2156C22.7421 12.3005 19.3231 10.65 14.9852 10.65C10.6223 10.65 7.23834 12.1522 5.59599 15.1001ZM15.004 16.5675C13.8886 16.5675 12.9909 15.6573 12.9909 14.5281C12.9909 13.399 13.8886 12.4888 15.004 12.4888C16.108 12.4888 17.0096 13.3988 17.0096 14.5281C17.0096 15.6574 16.108 16.5675 15.004 16.5675Z" fill="#D81C23" stroke="#D81C23" stroke-width="0.2"/>
</svg>
